<svg version="1" xmlns="http://www.w3.org/2000/svg" width="933.333" height="933.333" viewBox="0 0 700.000000 700.000000"><path d="M0 305.2c0 256 .2 305 1.3 303.8 7.6-8.2 47.1-58.7 93.8-120 64.8-84.9 67.2-88.3 77.5-109.3l4.9-9.7h27.2c23.2 0 27.3.2 27.3 1.4 0 .8.7 6.6 1.5 12.8 1.2 9 4.1 19.8 14.4 53.3 17.7 57.5 21.7 70 22.4 70 .8 0 16.7-20.7 16.7-21.8 0-3.2-31.9-98.8-35.6-106.6-2.4-5.1-4.4-9.5-4.4-9.7 0-.2 14.1-.4 31.3-.4h31.3l1.1 8.2c1 7.1 15.3 60 17.2 63.5.6 1.2 3.3-2 33.8-40.9 12.9-16.5 16.3-22.5 16.3-29 0-1.7 1.6-1.8 26.7-1.8h26.8l-8.6 8.7c-11.1 11.4-13 13.7-48.8 59.1l-30.2 38.3 3.8 13.5c2.1 7.3 4.1 13.3 4.5 13.1.4-.1 11-13.5 23.4-29.7 51.7-67.2 63.5-83.7 70.5-98.3l2.3-4.7h51.3l1.1 8.8c1.8 14.5 39.3 139.8 60.4 201.7 6.3 18.5 13.1 36.2 16.7 43 2 3.8 3.7 7.3 3.9 7.7.2.5-14.5.8-32.6.8h-33l-.6-2.3c-.3-1.2-.6-3.9-.6-5.9 0-6.3-1.8-13-15.1-56.8-7.2-23.4-13.2-43.3-13.5-44.3-.5-1.6-3.9-1.7-52.7-1.7l-52.2.1-8.2 11.8-8.2 11.8 10.5 32.4c7.8 24.1 11.9 35.1 16 42.8 3 5.8 5.4 10.8 5.4 11.3 0 .4-14.1.8-31.4.8-35.3 0-31.8.8-33.1-8-.8-5.1-5.3-21.7-6.4-23.9-1.4-2.5-14.2 14-22.3 28.8l-1.7 3.1h-49.8l-1.2-7.3c-1.6-9.2-6.4-25.8-7.6-26-1.5-.3-14.2 17.2-18.6 25.5l-4 7.8h-24.5c-13.4 0-24.4-.2-24.4-.3 0-.2 3.7-4.2 8.3-8.8 9.9-10.1 47.6-57.1 47.7-59.6 0-.4-2.5-9.9-5.7-21.1l-5.7-20.2h-52l-52.1.1-13 17.2c-7.1 9.4-21.9 28.6-32.8 42.7-10.9 14-23.5 31-28 37.7L30.5 631H0v69h700V350.3C700 55.6 699.8.8 698.6 2c-.7.8-60.6 78.6-133.1 172.7L433.7 346h-19.8c-11 0-19.9-.2-19.9-.5 0-.4 226-293.6 265.3-344.3.8-.9-65.2-1.2-329.2-1.2H0v305.2z"/><path d="M453.8 425.5c-4.7 8-20.7 29.6-36.1 48.7L405.9 489h68.9l-2.5-7.8c-11.3-35.5-13.6-44-14.2-52.9l-.6-9.1-3.7 6.3zM184.1 427.2c-5.4 8.6-21.6 30.5-35.9 48.3l-10.4 13 33.7.3c18.6.1 33.9.1 34.1-.1.2-.1-.8-3.9-2.2-8.2-10.5-33.8-13.7-45.6-14.3-52.7l-.6-7.7-4.4 7.1zM291.3 533.7l-8.9 11.8 5.3 16.5c2.9 9.1 5.5 17.1 5.8 17.9.3.8 4.3-3.9 9.9-11.5 8.1-11.1 9.3-13.2 8.3-14.9-.6-1.1-3.4-8.7-6.2-16.8l-5.2-14.9-9 11.9z"/></svg>